<mxfile host="app.diagrams.net" agent="Mozilla/5.0 (X11; Linux x86_64) AppleWebKit/537.36 (KHTML, like Gecko) Chrome/130.0.0.0 Safari/537.36" version="24.8.6">
  <diagram name="Page-1" id="90a13364-a465-7bf4-72fc-28e22215d7a0">
    <mxGraphModel dx="989" dy="477" grid="1" gridSize="10" guides="1" tooltips="1" connect="1" arrows="1" fold="1" page="1" pageScale="1.5" pageWidth="1169" pageHeight="826" background="none" math="0" shadow="0">
      <root>
        <mxCell id="0" style=";html=1;" />
        <mxCell id="1" style=";html=1;" parent="0" />
        <mxCell id="3a17f1ce550125da-2" value="Автоматизований розрахунок шляху машини та планованих витрат під час дороги" style="whiteSpace=wrap;html=1;shadow=1;fontSize=11;fillColor=#f5f5f5;strokeColor=#666666;" parent="1" vertex="1">
          <mxGeometry x="735.5" y="480" width="273" height="156" as="geometry" />
        </mxCell>
        <mxCell id="m5DSVgg81cJq_zt4lNOw-1" value="" style="endArrow=classic;html=1;rounded=0;entryX=0.002;entryY=0.346;entryDx=0;entryDy=0;entryPerimeter=0;" edge="1" parent="1">
          <mxGeometry width="50" height="50" relative="1" as="geometry">
            <mxPoint x="983" y="750" as="sourcePoint" />
            <mxPoint x="983.046" y="635.996" as="targetPoint" />
          </mxGeometry>
        </mxCell>
        <mxCell id="m5DSVgg81cJq_zt4lNOw-2" value="" style="endArrow=classic;html=1;rounded=0;entryX=0.002;entryY=0.346;entryDx=0;entryDy=0;entryPerimeter=0;" edge="1" parent="1">
          <mxGeometry width="50" height="50" relative="1" as="geometry">
            <mxPoint x="796" y="750" as="sourcePoint" />
            <mxPoint x="796" y="636" as="targetPoint" />
          </mxGeometry>
        </mxCell>
        <mxCell id="m5DSVgg81cJq_zt4lNOw-3" value="&lt;div style=&quot;font-size: 8px;&quot;&gt;&lt;strong style=&quot;background-color: initial; font-size: 8px;&quot;&gt;Система планування маршрутів&lt;/strong&gt;&lt;/div&gt;&lt;div style=&quot;font-size: 8px;&quot;&gt;&lt;span style=&quot;background-color: initial; font-size: 8px;&quot;&gt;(GPS-навігатор, логістична платформа, алгоритми підрахунку).&lt;br&gt;&lt;/span&gt;&lt;/div&gt;" style="text;html=1;align=center;verticalAlign=middle;whiteSpace=wrap;rounded=0;fontSize=8;" vertex="1" parent="1">
          <mxGeometry x="990" y="712.5" width="140" height="45" as="geometry" />
        </mxCell>
        <mxCell id="m5DSVgg81cJq_zt4lNOw-4" value="&lt;strong style=&quot;font-size: 8px;&quot;&gt;Алгоритм розрахунку витрат&lt;/strong&gt; (програмне забезпечення)." style="text;html=1;align=center;verticalAlign=middle;whiteSpace=wrap;rounded=0;fontSize=8;" vertex="1" parent="1">
          <mxGeometry x="690" y="715" width="100" height="40" as="geometry" />
        </mxCell>
        <mxCell id="m5DSVgg81cJq_zt4lNOw-6" value="" style="endArrow=classic;html=1;rounded=0;entryX=0.307;entryY=0.999;entryDx=0;entryDy=0;entryPerimeter=0;" edge="1" parent="1" target="3a17f1ce550125da-2">
          <mxGeometry width="50" height="50" relative="1" as="geometry">
            <mxPoint x="820" y="750" as="sourcePoint" />
            <mxPoint x="830" y="636" as="targetPoint" />
          </mxGeometry>
        </mxCell>
        <mxCell id="m5DSVgg81cJq_zt4lNOw-7" value="" style="endArrow=classic;html=1;rounded=0;entryX=0.002;entryY=0.346;entryDx=0;entryDy=0;entryPerimeter=0;" edge="1" parent="1">
          <mxGeometry width="50" height="50" relative="1" as="geometry">
            <mxPoint x="877" y="750" as="sourcePoint" />
            <mxPoint x="877" y="636" as="targetPoint" />
          </mxGeometry>
        </mxCell>
        <mxCell id="m5DSVgg81cJq_zt4lNOw-14" value="" style="endArrow=classic;html=1;rounded=0;" edge="1" parent="1">
          <mxGeometry width="50" height="50" relative="1" as="geometry">
            <mxPoint x="790" y="360" as="sourcePoint" />
            <mxPoint x="790" y="480" as="targetPoint" />
          </mxGeometry>
        </mxCell>
        <mxCell id="m5DSVgg81cJq_zt4lNOw-16" value="" style="endArrow=classic;html=1;rounded=0;entryX=0.529;entryY=-0.002;entryDx=0;entryDy=0;entryPerimeter=0;" edge="1" parent="1">
          <mxGeometry width="50" height="50" relative="1" as="geometry">
            <mxPoint x="820.08" y="360.31" as="sourcePoint" />
            <mxPoint x="819.997" y="479.998" as="targetPoint" />
          </mxGeometry>
        </mxCell>
        <mxCell id="m5DSVgg81cJq_zt4lNOw-18" value="&lt;span style=&quot;font-size: 8px;&quot;&gt;Інформаційна система управління транспортом&lt;/span&gt;&lt;span style=&quot;font-size: 8px;&quot;&gt;&amp;nbsp;&lt;/span&gt;&lt;span style=&quot;font-size: 8px;&quot;&gt;(TMS).&lt;/span&gt;" style="text;html=1;align=center;verticalAlign=middle;whiteSpace=wrap;rounded=0;fontSize=8;fontStyle=0" vertex="1" parent="1">
          <mxGeometry x="880" y="715" width="100" height="40" as="geometry" />
        </mxCell>
        <mxCell id="m5DSVgg81cJq_zt4lNOw-19" value="&lt;span style=&quot;font-size: 8px;&quot;&gt;Диспетчер логістики&lt;/span&gt;" style="text;html=1;align=center;verticalAlign=middle;whiteSpace=wrap;rounded=0;fontSize=8;fontStyle=0" vertex="1" parent="1">
          <mxGeometry x="817" y="715" width="53" height="40" as="geometry" />
        </mxCell>
        <mxCell id="m5DSVgg81cJq_zt4lNOw-21" value="Пункт відправлення" style="text;html=1;align=center;verticalAlign=middle;whiteSpace=wrap;rounded=0;fontSize=9;fontStyle=0;fontFamily=Verdana;" vertex="1" parent="1">
          <mxGeometry x="608.36" y="496" width="90" height="20" as="geometry" />
        </mxCell>
        <mxCell id="m5DSVgg81cJq_zt4lNOw-22" value="&lt;span style=&quot;font-size: 9px;&quot;&gt;Кінцевий пункт доставки&lt;/span&gt;" style="text;html=1;align=center;verticalAlign=middle;whiteSpace=wrap;rounded=0;fontSize=9;fontFamily=Verdana;" vertex="1" parent="1">
          <mxGeometry x="598.36" y="536" width="110" height="20" as="geometry" />
        </mxCell>
        <mxCell id="m5DSVgg81cJq_zt4lNOw-23" value="&lt;span style=&quot;font-size: 9px;&quot;&gt;Параметри транспортного засобу&lt;/span&gt;" style="text;whiteSpace=wrap;html=1;fontSize=9;fontStyle=0;fontFamily=Verdana;verticalAlign=middle;align=center;" vertex="1" parent="1">
          <mxGeometry x="584.73" y="576" width="137.25" height="20" as="geometry" />
        </mxCell>
        <mxCell id="m5DSVgg81cJq_zt4lNOw-24" value="&lt;span style=&quot;font-size: 9px;&quot;&gt;Інформація про дорожню мережу&lt;/span&gt; (карти, затори, дорожні ремонти)." style="text;whiteSpace=wrap;html=1;fontSize=9;align=center;fontFamily=Verdana;verticalAlign=middle;" vertex="1" parent="1">
          <mxGeometry x="579.73" y="612" width="147.25" height="24" as="geometry" />
        </mxCell>
        <mxCell id="m5DSVgg81cJq_zt4lNOw-25" value="" style="endArrow=classic;html=1;rounded=0;entryX=0.001;entryY=0.772;entryDx=0;entryDy=0;entryPerimeter=0;" edge="1" parent="1">
          <mxGeometry width="50" height="50" relative="1" as="geometry">
            <mxPoint x="579.73" y="606" as="sourcePoint" />
            <mxPoint x="735.5029999999999" y="606.432" as="targetPoint" />
          </mxGeometry>
        </mxCell>
        <mxCell id="m5DSVgg81cJq_zt4lNOw-26" value="" style="endArrow=classic;html=1;rounded=0;entryX=0.001;entryY=0.772;entryDx=0;entryDy=0;entryPerimeter=0;" edge="1" parent="1">
          <mxGeometry width="50" height="50" relative="1" as="geometry">
            <mxPoint x="579.23" y="576" as="sourcePoint" />
            <mxPoint x="735.23" y="576" as="targetPoint" />
          </mxGeometry>
        </mxCell>
        <mxCell id="m5DSVgg81cJq_zt4lNOw-27" value="" style="endArrow=classic;html=1;rounded=0;entryX=0.001;entryY=0.772;entryDx=0;entryDy=0;entryPerimeter=0;" edge="1" parent="1">
          <mxGeometry width="50" height="50" relative="1" as="geometry">
            <mxPoint x="579.23" y="535.81" as="sourcePoint" />
            <mxPoint x="735.23" y="535.81" as="targetPoint" />
          </mxGeometry>
        </mxCell>
        <mxCell id="m5DSVgg81cJq_zt4lNOw-28" value="" style="endArrow=classic;html=1;rounded=0;entryX=0.001;entryY=0.772;entryDx=0;entryDy=0;entryPerimeter=0;" edge="1" parent="1">
          <mxGeometry width="50" height="50" relative="1" as="geometry">
            <mxPoint x="579.23" y="495.99999999999994" as="sourcePoint" />
            <mxPoint x="735.23" y="495.99999999999994" as="targetPoint" />
          </mxGeometry>
        </mxCell>
        <mxCell id="m5DSVgg81cJq_zt4lNOw-30" value="&lt;strong style=&quot;font-size: 9px;&quot;&gt;Обмеження на маршрути&lt;/strong&gt; (зони з платними дорогами, заборонені для проїзду ділянки)." style="text;whiteSpace=wrap;html=1;fontSize=9;verticalAlign=middle;align=left;" vertex="1" parent="1">
          <mxGeometry x="660" y="390" width="130" height="40" as="geometry" />
        </mxCell>
        <mxCell id="m5DSVgg81cJq_zt4lNOw-31" value="&lt;span style=&quot;font-size: 9px;&quot;&gt;Регламенти планування перевезень&lt;/span&gt; (час доставки, допустимі витрати)." style="text;whiteSpace=wrap;html=1;fontSize=9;align=left;" vertex="1" parent="1">
          <mxGeometry x="830" y="385" width="110" height="50" as="geometry" />
        </mxCell>
        <mxCell id="m5DSVgg81cJq_zt4lNOw-33" value="" style="endArrow=classic;html=1;rounded=0;entryX=0.529;entryY=-0.002;entryDx=0;entryDy=0;entryPerimeter=0;" edge="1" parent="1">
          <mxGeometry width="50" height="50" relative="1" as="geometry">
            <mxPoint x="950.08" y="360.31" as="sourcePoint" />
            <mxPoint x="949.997" y="479.998" as="targetPoint" />
          </mxGeometry>
        </mxCell>
        <mxCell id="m5DSVgg81cJq_zt4lNOw-34" value="Законодавчі вимоги" style="text;whiteSpace=wrap;html=1;fontSize=9;verticalAlign=middle;" vertex="1" parent="1">
          <mxGeometry x="960" y="390" width="90" height="15" as="geometry" />
        </mxCell>
        <mxCell id="m5DSVgg81cJq_zt4lNOw-35" value="" style="endArrow=classic;html=1;rounded=0;exitX=1.005;exitY=0.256;exitDx=0;exitDy=0;exitPerimeter=0;" edge="1" parent="1" source="3a17f1ce550125da-2">
          <mxGeometry width="50" height="50" relative="1" as="geometry">
            <mxPoint x="1010" y="520" as="sourcePoint" />
            <mxPoint x="1190" y="520" as="targetPoint" />
          </mxGeometry>
        </mxCell>
        <mxCell id="m5DSVgg81cJq_zt4lNOw-36" value="" style="endArrow=classic;html=1;rounded=0;exitX=1;exitY=0.509;exitDx=0;exitDy=0;exitPerimeter=0;" edge="1" parent="1" source="3a17f1ce550125da-2">
          <mxGeometry width="50" height="50" relative="1" as="geometry">
            <mxPoint x="1008.5" y="557.76" as="sourcePoint" />
            <mxPoint x="1190" y="560" as="targetPoint" />
          </mxGeometry>
        </mxCell>
        <mxCell id="m5DSVgg81cJq_zt4lNOw-37" value="Прогнозований час прибуття на склад." style="text;whiteSpace=wrap;html=1;fontSize=9;" vertex="1" parent="1">
          <mxGeometry x="1020" y="496" width="170" height="20" as="geometry" />
        </mxCell>
        <mxCell id="m5DSVgg81cJq_zt4lNOw-38" value="Орієнтовні витрати на дорогу" style="text;whiteSpace=wrap;html=1;fontSize=9;verticalAlign=middle;fontStyle=0" vertex="1" parent="1">
          <mxGeometry x="1020" y="546" width="130" height="10" as="geometry" />
        </mxCell>
        <mxCell id="m5DSVgg81cJq_zt4lNOw-39" value="" style="endArrow=classic;html=1;rounded=0;exitX=1.001;exitY=0.835;exitDx=0;exitDy=0;exitPerimeter=0;" edge="1" parent="1" source="3a17f1ce550125da-2">
          <mxGeometry width="50" height="50" relative="1" as="geometry">
            <mxPoint x="1008.5" y="612" as="sourcePoint" />
            <mxPoint x="1190" y="610" as="targetPoint" />
          </mxGeometry>
        </mxCell>
        <mxCell id="m5DSVgg81cJq_zt4lNOw-40" value="Оптимальний маршрут переміщення машини" style="text;html=1;align=center;verticalAlign=middle;whiteSpace=wrap;rounded=0;fontSize=9;fontStyle=0" vertex="1" parent="1">
          <mxGeometry x="1020" y="576" width="170" height="30" as="geometry" />
        </mxCell>
      </root>
    </mxGraphModel>
  </diagram>
</mxfile>
